<svg version="1.1" id="Layer_1" xmlns="http://www.w3.org/2000/svg" xmlns:xlink="http://www.w3.org/1999/xlink" x="0px" y="0px"
	 width="100%" viewBox="0 0 500 500" enable-background="new 0 0 500 500" xml:space="preserve">
<path fill="transparent" opacity="1.000000" stroke="none" 
	d="
M230.000000,501.000000 
	C153.333359,501.000000 77.166702,501.000000 1.000041,501.000000 
	C1.000027,334.333405 1.000027,167.666779 1.000014,1.000130 
	C167.666565,1.000087 334.333130,1.000087 500.999756,1.000043 
	C500.999847,167.666519 500.999847,334.333038 500.999939,500.999786 
	C410.833344,501.000000 320.666656,501.000000 230.000000,501.000000 
M223.922867,352.771271 
	C224.598450,353.209381 225.274048,353.647461 225.977249,354.019714 
	C225.977249,354.019714 225.905899,354.021210 226.317657,354.805420 
	C233.094025,354.869476 239.871201,355.015839 246.646286,354.949554 
	C248.799347,354.928467 250.946854,354.341339 253.021378,354.011139 
	C253.021378,354.011139 253.072052,354.067200 253.716583,354.035217 
	C254.049332,353.474823 254.382080,352.914429 255.057190,351.727722 
	C255.723587,350.536499 256.390015,349.345276 257.640045,347.851257 
	C258.145020,346.947968 258.649963,346.044647 259.743500,344.765991 
	C261.557159,341.515015 263.370819,338.264008 265.735931,334.631897 
	C269.133575,329.114441 272.531250,323.596985 276.204285,317.426453 
	C277.844025,314.332153 279.483765,311.237885 281.107483,308.069885 
	C281.107483,308.069885 281.033844,308.086334 281.657349,308.354919 
	C282.057098,307.886932 282.456848,307.418976 283.199646,306.342987 
	C286.164948,301.625275 289.130219,296.907532 292.682098,291.796875 
	C296.777435,285.087372 300.949951,278.423492 304.945831,271.655243 
	C308.765930,265.184784 312.402283,258.605865 316.639801,251.649475 
	C320.442261,245.863785 324.244690,240.078094 328.646729,233.900238 
	C330.094452,231.314178 331.542175,228.728134 333.780060,225.717133 
	C333.853119,208.994034 333.951447,192.270935 333.945343,175.547867 
	C333.944916,174.370178 333.173462,173.192795 332.625519,171.153076 
	C322.294891,170.885452 311.964417,170.605972 301.632141,170.441757 
	C301.440094,170.438705 301.226257,171.805664 300.900177,172.957001 
	C300.950348,173.253098 300.932281,173.544968 300.210907,174.133133 
	C296.777313,180.003922 293.343750,185.874710 289.274933,192.077042 
	C286.557251,196.714951 283.839569,201.352875 280.803223,206.618423 
	C277.830231,211.686295 274.857239,216.754150 271.253204,222.129654 
	C267.756378,228.036102 264.259552,233.942551 260.152679,240.180008 
	C256.795654,245.789520 253.438614,251.399033 249.759964,257.628723 
	C246.816940,262.679596 243.873932,267.730499 240.335449,273.083527 
	C239.588867,274.390808 238.842270,275.698120 237.972641,277.380646 
	C237.972641,277.380646 237.936249,277.773895 237.305908,278.113098 
	C235.687164,280.739594 234.029190,283.342804 232.456619,285.996674 
	C226.339371,296.320160 220.249237,306.659760 213.827667,317.614044 
	C211.716904,320.351776 209.606125,323.089478 207.422836,325.921265 
	C209.506256,328.895508 211.715317,332.049103 213.972336,335.900482 
	C215.621964,338.348389 217.271606,340.796265 218.961914,343.931274 
	C220.046539,345.679016 221.131180,347.426758 222.463425,349.720398 
	C222.964661,350.506134 223.465897,351.291840 223.988235,352.012238 
	C223.988235,352.012238 223.922211,352.031128 223.922867,352.771271 
M124.115784,170.972977 
	C119.806892,171.908371 115.297104,172.351639 111.599350,176.440323 
	C96.156677,183.819748 80.838776,191.394836 72.701477,207.787262 
	C70.035652,213.157501 66.764603,218.482574 65.429207,224.214783 
	C58.880608,252.324692 63.593964,278.415619 82.941406,300.333160 
	C93.444290,312.231201 107.617928,319.421387 122.945572,324.783936 
	C126.793198,324.848602 130.640640,324.950806 134.488495,324.969421 
	C140.904114,325.000397 147.319992,324.977875 153.921295,324.977875 
	C153.921295,307.122192 153.928787,289.856842 153.885254,272.591644 
	C153.883957,272.071716 153.349106,271.553162 152.127579,270.887390 
	C148.818893,270.874054 145.490616,270.621948 142.205154,270.891632 
	C131.893951,271.737976 124.206139,268.009125 118.828842,258.277710 
	C118.357849,250.066040 116.499344,241.725601 120.963745,233.993362 
	C120.963745,233.993362 120.969269,234.113312 121.263229,233.858643 
	C121.497749,233.731018 121.679825,233.550491 122.172028,232.698624 
	C125.439125,230.499634 128.706223,228.300629 132.893143,225.888947 
	C147.311600,225.926682 161.730103,225.984497 176.148453,225.958054 
	C177.135696,225.956238 178.121811,225.323685 179.028442,224.989319 
	C179.028442,224.989319 179.035477,225.069153 179.632935,224.949982 
	C179.870056,224.624420 180.107178,224.298874 180.840622,223.543488 
	C187.585861,212.208176 194.402847,200.914627 201.039734,189.516220 
	C203.561661,185.184967 205.669449,180.612579 208.689453,176.162796 
	C209.483459,176.003754 210.824677,176.045563 210.970398,175.648575 
	C211.434326,174.384613 212.089783,172.306854 211.505463,171.735260 
	C210.448273,170.701111 208.541672,170.050934 207.002029,170.073700 
	C197.665558,170.211716 188.332565,170.585236 179.014297,170.991760 
	C179.014297,170.991760 179.125610,170.973618 178.839233,170.315979 
	C178.384323,170.189194 177.929413,170.062408 176.627075,169.708496 
	C161.062729,169.987396 145.497726,170.238037 129.935440,170.604233 
	C128.811874,170.630676 127.708138,171.498962 127.254738,171.053192 
	C126.986137,170.787170 126.717537,170.521133 126.011826,170.003494 
	C125.627014,170.320190 125.242195,170.636871 124.115784,170.972977 
M165.905945,324.993958 
	C174.442841,324.994629 182.980194,325.039215 191.516220,324.953613 
	C192.976944,324.938995 194.432098,324.368256 196.214203,323.426636 
	C197.862610,320.658020 199.511017,317.889404 201.745544,314.744629 
	C205.456573,308.500732 209.167603,302.256836 213.201324,295.385376 
	C216.836960,289.292999 220.472580,283.200623 224.698318,276.729584 
	C226.888641,272.606201 229.078979,268.482849 231.248062,264.217621 
	C231.248062,264.217621 231.107010,264.243896 231.725754,264.517731 
	C232.105820,264.013306 232.485886,263.508881 233.158020,262.412415 
	C233.473358,261.624603 233.788696,260.836823 234.727905,259.743896 
	C239.791824,251.497131 244.855743,243.250381 250.211075,234.371277 
	C251.186707,232.599762 252.162338,230.828247 253.761017,228.749176 
	C257.238708,222.871689 260.716400,216.994202 264.768036,210.730286 
	C266.812897,207.153488 268.857788,203.576706 271.196655,199.369736 
	C272.188263,197.593155 273.179840,195.816574 274.788452,193.738602 
	C279.274292,186.613297 283.910065,179.574097 288.099823,172.278732 
	C288.805969,171.049164 287.586792,168.713867 287.155792,166.172226 
	C282.166168,158.378510 277.176575,150.584793 272.090332,142.032898 
	C270.236298,140.986038 268.475800,139.333450 266.507050,139.029312 
	C263.269562,138.529190 259.832367,139.322998 256.594360,138.824432 
	C248.762100,137.618408 242.937515,139.668365 240.095261,147.595444 
	C240.041245,147.746094 240.063522,147.924103 239.723007,148.690170 
	C236.091614,154.749969 232.460236,160.809753 228.221619,167.176178 
	C227.463928,168.746475 226.706238,170.316772 225.312057,172.180237 
	C221.585938,178.129089 217.859802,184.077957 213.783295,190.633316 
	C207.886139,200.073151 201.988983,209.512985 195.808212,219.582657 
	C194.836945,221.341995 193.865677,223.101334 192.265686,225.164124 
	C191.028381,227.076294 189.740189,228.957718 188.562225,230.905777 
	C182.333054,241.207245 176.131607,251.525482 169.859299,261.868896 
	C169.859299,261.868896 169.847336,261.936493 169.250595,262.170563 
	C168.546005,263.437012 167.841415,264.703461 166.891190,266.550323 
	C166.237503,267.350403 165.583817,268.150513 164.158173,269.363464 
	C164.112320,287.239014 164.056870,305.114594 164.061081,322.990143 
	C164.061218,323.607666 164.657852,324.225037 165.905945,324.993958 
M318.229675,270.916260 
	C317.801849,271.316101 317.374023,271.715942 316.808563,272.797150 
	C312.884247,279.084320 308.792603,285.274353 305.074127,291.681030 
	C299.248138,301.718903 293.674316,311.903137 287.138184,322.066101 
	C286.647095,322.846283 286.156006,323.626495 285.575897,324.548157 
	C286.502228,324.821899 286.818787,324.997192 287.135468,324.997375 
	C315.520477,325.014343 343.906036,325.096405 372.289520,324.890350 
	C374.881897,324.871521 377.460907,323.001648 380.791992,321.952759 
	C386.796753,319.219513 392.991394,316.834442 398.768494,313.683746 
	C412.689972,306.091217 423.087036,295.093658 429.706757,280.548798 
	C436.587524,265.430359 436.414154,249.578979 433.745178,233.855804 
	C431.050629,217.981995 424.302948,203.507858 411.498230,193.194611 
	C403.313629,186.602463 393.841675,181.608612 384.801819,175.255630 
	C384.246704,174.500198 383.782684,173.185852 383.121979,173.078186 
	C378.061523,172.253357 372.977875,171.294601 367.872467,171.085663 
	C359.968079,170.762177 352.040771,171.000351 343.990051,171.000351 
	C343.990051,188.740677 343.958130,205.875092 344.072418,223.008530 
	C344.079010,223.996323 345.275452,224.976166 346.860474,226.065735 
	C350.654510,226.084991 354.473236,226.390610 358.237701,226.066330 
	C367.224823,225.292114 373.650269,228.560349 376.967316,237.950058 
	C377.996185,243.262482 379.025055,248.574905 379.874847,254.616119 
	C377.371460,263.135864 371.363159,268.120392 362.802551,270.286133 
	C348.686554,270.192902 334.570618,270.089935 320.454468,270.046326 
	C319.953979,270.044769 319.451660,270.631317 318.229675,270.916260 
z"/>
<path fill="#212121" opacity="1.000000" stroke="none" 
	d="
M122.914879,323.983215 
	C107.617928,319.421387 93.444290,312.231201 82.941406,300.333160 
	C63.593964,278.415619 58.880608,252.324692 65.429207,224.214783 
	C66.764603,218.482574 70.035652,213.157501 72.701477,207.787262 
	C80.838776,191.394836 96.156677,183.819748 112.215790,176.240982 
	C117.419876,174.686371 122.007523,173.331100 126.595169,171.975830 
	C127.708138,171.498962 128.811874,170.630676 129.935440,170.604233 
	C145.497726,170.238037 161.062729,169.987396 176.918610,170.399139 
	C177.848618,171.051071 178.487122,171.012344 179.125610,170.973618 
	C179.125610,170.973618 179.014297,170.991760 178.856537,171.420197 
	C188.975601,171.848633 199.252411,171.848633 210.459290,171.848633 
	C209.183411,174.049820 208.574707,175.099960 207.966003,176.150116 
	C205.669449,180.612579 203.561661,185.184967 201.039734,189.516220 
	C194.402847,200.914627 187.585861,212.208176 180.201950,223.697342 
	C179.387344,224.257187 179.211411,224.663162 179.035477,225.069153 
	C179.035477,225.069153 179.028442,224.989319 178.616776,224.825562 
	C164.605331,224.649521 151.005096,224.582275 137.406281,224.690674 
	C135.591675,224.705139 133.784134,225.609421 131.973328,226.101639 
	C128.706223,228.300629 125.439125,230.499634 121.764694,233.050903 
	C120.974487,233.501389 120.845123,233.738113 120.969269,234.113312 
	C120.969269,234.113312 120.963745,233.993362 120.670120,233.872986 
	C114.859398,241.160172 114.525200,252.146286 119.623367,258.510254 
	C124.206139,268.009125 131.893951,271.737976 142.205154,270.891632 
	C145.490616,270.621948 148.818893,270.874054 152.539795,271.424316 
	C152.951996,289.207062 152.951996,306.452850 152.951996,323.983215 
	C142.501556,323.983215 132.708221,323.983215 122.914879,323.983215 
z"/>
<path fill="#212121" opacity="1.000000" stroke="none" 
	d="
M377.062531,237.122131 
	C373.650269,228.560349 367.224823,225.292114 358.237701,226.066330 
	C354.473236,226.390610 350.654510,226.084991 346.391052,225.542633 
	C345.824127,207.752411 345.724243,190.485321 345.652649,173.218094 
	C345.651611,172.964371 346.003052,172.709198 346.424255,172.135757 
	C358.393311,172.614136 370.805145,170.310883 382.516266,175.807434 
	C383.191864,176.124527 384.130615,175.880875 384.946899,175.898193 
	C393.841675,181.608612 403.313629,186.602463 411.498230,193.194611 
	C424.302948,203.507858 431.050629,217.981995 433.745178,233.855804 
	C436.414154,249.578979 436.587524,265.430359 429.706757,280.548798 
	C423.087036,295.093658 412.689972,306.091217 398.768494,313.683746 
	C392.991394,316.834442 386.796753,319.219513 380.012573,321.875854 
	C376.324341,322.468262 373.418762,323.702148 370.506256,323.718781 
	C343.883087,323.870636 317.258667,323.828033 290.634949,323.737701 
	C289.752594,323.734711 288.873993,322.621216 287.993652,322.025360 
	C293.674316,311.903137 299.248138,301.718903 305.074127,291.681030 
	C308.792603,285.274353 312.884247,279.084320 317.281982,272.526550 
	C318.246704,272.032806 318.737976,271.809631 319.682678,271.580566 
	C326.272919,271.574097 332.410645,271.639832 338.546356,271.556671 
	C346.801147,271.444824 355.054382,271.218109 363.308289,271.040710 
	C371.363159,268.120392 377.371460,263.135864 380.320435,254.196045 
	C380.503296,249.467972 380.450195,245.130722 379.855438,240.869049 
	C379.666656,239.516495 378.034302,238.365402 377.062531,237.122131 
z"/>
<path fill="#3B2F9E" opacity="1.000000" stroke="none" 
	d="
M289.910187,191.745499 
	C293.343750,185.874710 296.777313,180.003922 300.556488,174.370575 
	C304.955811,182.441986 309.009552,190.275925 313.054047,198.311020 
	C313.044800,198.512161 313.028595,198.917236 313.030670,199.182709 
	C313.029907,199.625137 313.027039,199.802109 312.728027,200.140915 
	C308.622833,203.515869 304.813812,206.728973 300.992126,210.401794 
	C300.985168,213.907867 300.990936,216.954239 300.747070,220.005615 
	C300.497437,220.010620 299.998199,220.020599 299.669281,219.868134 
	C295.154999,218.131241 290.969635,216.546844 285.637909,214.528488 
	C289.827667,213.303650 292.858246,212.575668 295.757416,211.495163 
	C296.978394,211.040146 297.922028,209.841019 298.940308,208.637238 
	C296.499908,204.952667 293.890137,201.741180 291.811066,198.216644 
	C290.703583,196.339111 290.514038,193.920105 289.910187,191.745499 
z"/>
<path fill="#672B81" opacity="1.000000" stroke="none" 
	d="
M237.936249,277.773895 
	C237.936249,277.773895 237.972641,277.380646 238.371994,277.126038 
	C239.491211,275.508057 240.211075,274.144745 240.930908,272.781403 
	C243.873932,267.730499 246.816940,262.679596 250.239349,257.337402 
	C251.144318,257.046295 251.569901,257.046509 252.048553,257.396851 
	C255.063599,262.499542 258.025604,267.252045 260.980103,272.379395 
	C257.285004,279.188416 253.597397,285.622589 249.506180,292.036469 
	C245.045197,291.059631 240.987793,290.103088 236.940964,288.690735 
	C237.279770,284.747925 237.608002,281.260925 237.936249,277.773895 
z"/>
<path fill="#692D90" opacity="1.000000" stroke="none" 
	d="
M218.921249,343.244171 
	C217.271606,340.796265 215.621964,338.348389 213.989594,335.123535 
	C214.671326,328.886047 215.335815,323.425507 216.321381,317.819977 
	C222.424835,315.440369 228.207230,313.205750 234.392273,310.981415 
	C236.864075,311.334900 238.933212,311.678101 240.950348,312.375336 
	C239.850677,314.759369 238.800232,316.787964 237.755966,318.819733 
	C235.160553,323.869446 232.567963,328.920654 229.681122,334.136658 
	C225.899094,337.282745 222.410172,340.263458 218.921249,343.244171 
z"/>
<path fill="#9A326F" opacity="1.000000" stroke="none" 
	d="
M240.050201,148.089355 
	C240.063522,147.924103 240.041245,147.746094 240.095261,147.595444 
	C242.937515,139.668365 248.762100,137.618408 256.594360,138.824432 
	C259.832367,139.322998 263.269562,138.529190 266.507050,139.029312 
	C268.475800,139.333450 270.236298,140.986038 272.099670,142.810913 
	C270.057892,149.725082 268.006744,155.861237 265.585327,161.996918 
	C264.472015,161.993469 263.728882,161.990509 262.978790,161.621948 
	C262.813629,160.622086 262.869904,159.690506 262.464905,159.398376 
	C256.856262,155.352600 251.235580,151.316833 245.464355,147.511368 
	C244.725479,147.024170 243.122513,147.847366 241.608215,148.068268 
	C240.881134,148.078461 240.465668,148.083908 240.050201,148.089355 
z"/>
<path fill="#242F89" opacity="1.000000" stroke="none" 
	d="
M316.119415,252.074585 
	C312.402283,258.605865 308.765930,265.184784 304.945831,271.655243 
	C300.949951,278.423492 296.777435,285.087372 292.133148,291.748535 
	C288.054901,286.458344 284.525635,281.216461 280.995941,275.730133 
	C280.995514,275.485718 280.997559,274.996277 281.356812,274.946350 
	C287.806244,272.261047 293.896393,269.625671 300.283325,266.832367 
	C301.438599,265.689178 302.223846,264.626648 303.168213,263.732117 
	C307.363037,259.758667 311.603424,255.833313 315.898926,251.938858 
	C315.970520,251.987137 316.119415,252.074585 316.119415,252.074585 
z"/>
<path fill="#2945B0" opacity="1.000000" stroke="none" 
	d="
M332.989929,226.142090 
	C331.542175,228.728134 330.094452,231.314178 327.974609,233.907318 
	C323.870148,233.590973 320.437775,233.267563 317.006531,232.512543 
	C317.657806,225.042175 318.307922,218.003403 318.819824,210.649292 
	C317.459900,207.556320 316.238190,204.778687 315.385162,202.010193 
	C319.501343,203.683167 323.248779,205.347031 327.071899,207.348557 
	C328.744751,208.449966 330.341949,209.213715 332.091370,210.424164 
	C332.492371,215.961273 332.741150,221.051682 332.989929,226.142090 
z"/>
<path fill="#89398C" opacity="1.000000" stroke="none" 
	d="
M274.171448,194.040009 
	C273.179840,195.816574 272.188263,197.593155 270.682129,199.754944 
	C264.773743,199.423523 259.379883,198.706879 253.975830,197.744995 
	C253.965622,197.499756 253.936584,197.009445 254.204193,196.793869 
	C257.306885,190.726334 260.141937,184.874359 263.143799,178.654556 
	C263.549286,176.703537 263.635803,175.078400 264.058289,173.545883 
	C264.943970,170.333420 266.006439,167.169693 267.293762,164.146942 
	C271.132141,169.104568 274.673126,173.901230 278.633575,179.266129 
	C273.002594,180.029770 268.719604,180.610611 264.436615,181.191452 
	C264.208130,181.691788 263.979645,182.192123 263.751160,182.692459 
	C267.224579,186.474976 270.698029,190.257492 274.171448,194.040009 
z"/>
<path fill="#C33941" opacity="1.000000" stroke="none" 
	d="
M192.894409,224.860672 
	C193.865677,223.101334 194.836945,221.341995 196.285065,219.318390 
	C198.337128,218.706451 200.001831,218.572083 201.465332,217.958084 
	C203.373047,217.157745 205.121231,215.977142 207.010773,215.339798 
	C208.713181,220.809998 210.342865,225.900558 211.985016,231.244797 
	C212.004303,231.667648 212.011139,231.836838 212.005798,232.329636 
	C211.983963,233.084991 211.974304,233.516708 211.676834,233.993652 
	C210.921036,234.356491 210.453049,234.674103 209.622269,235.004028 
	C207.876358,235.805267 206.439102,236.513565 205.120361,237.398468 
	C201.393768,239.899094 197.715775,242.472122 194.012314,244.551270 
	C193.635452,237.677490 193.264938,231.269089 192.894409,224.860672 
z"/>
<path fill="#723390" opacity="1.000000" stroke="none" 
	d="
M274.479950,193.889313 
	C270.698029,190.257492 267.224579,186.474976 263.751160,182.692459 
	C263.979645,182.192123 264.208130,181.691788 264.436615,181.191452 
	C268.719604,180.610611 273.002594,180.029770 278.633575,179.266129 
	C274.673126,173.901230 271.132141,169.104568 267.286133,163.823456 
	C266.968658,162.907898 266.956238,162.476822 267.336670,162.048080 
	C274.238708,163.663437 280.747955,165.276459 287.257202,166.889465 
	C287.586792,168.713867 288.805969,171.049164 288.099823,172.278732 
	C283.910065,179.574097 279.274292,186.613297 274.479950,193.889313 
z"/>
<path fill="#442289" opacity="1.000000" stroke="none" 
	d="
M218.941589,343.587708 
	C222.410172,340.263458 225.899094,337.282745 230.068451,334.088867 
	C236.498550,332.581970 242.248199,331.288269 247.840225,330.290710 
	C246.119781,333.056335 244.556946,335.525818 242.736526,338.210693 
	C239.201859,344.172058 235.646576,349.687500 229.591309,353.512848 
	C228.084763,353.706055 226.995331,353.863647 225.905899,354.021240 
	C225.905899,354.021210 225.977249,354.019714 226.068329,353.698730 
	C225.413681,352.928864 224.667953,352.479980 223.922211,352.031128 
	C223.922211,352.031128 223.988235,352.012238 224.075653,351.733154 
	C223.513992,350.694244 222.864899,349.934357 222.215805,349.174500 
	C221.131180,347.426758 220.046539,345.679016 218.941589,343.587708 
z"/>
<path fill="#7E388D" opacity="1.000000" stroke="none" 
	d="
M233.989609,310.971130 
	C228.207230,313.205750 222.424835,315.440369 216.150055,317.609131 
	C215.154785,317.359955 214.651901,317.176636 214.149017,316.993347 
	C220.249237,306.659760 226.339371,296.320160 232.456619,285.996674 
	C234.029190,283.342804 235.687164,280.739594 237.621078,277.943481 
	C237.608002,281.260925 237.279770,284.747925 236.718842,288.923706 
	C236.656662,291.402740 236.827164,293.193054 236.668808,295.196899 
	C235.556488,300.597351 234.773041,305.784210 233.989609,310.971130 
z"/>
<path fill="#1B2486" opacity="1.000000" stroke="none" 
	d="
M317.005402,232.944153 
	C320.437775,233.267563 323.870148,233.590973 327.674805,234.103394 
	C324.244690,240.078094 320.442261,245.863785 316.379608,251.862030 
	C316.119415,252.074585 315.970520,251.987137 315.821564,251.565002 
	C307.123962,251.081406 298.575348,251.019928 290.025146,250.594818 
	C290.031769,249.504013 290.039917,248.776810 290.385101,247.982346 
	C293.819183,243.934586 296.916199,239.954117 300.377258,235.979706 
	C305.501251,239.819962 310.261230,243.654175 315.364441,247.764862 
	C315.939484,242.571259 316.472443,237.757706 317.005402,232.944153 
z"/>
<path fill="#CF403D" opacity="1.000000" stroke="none" 
	d="
M192.580048,225.012390 
	C193.264938,231.269089 193.635452,237.677490 194.009552,244.796982 
	C194.013138,245.508057 194.007935,245.999878 193.648148,245.949554 
	C191.200836,244.936584 189.189392,243.674805 186.998734,243.117493 
	C185.562759,242.752197 183.194809,242.865814 182.479874,243.756622 
	C181.780807,244.627701 182.164764,247.054932 182.918289,248.278900 
	C185.402969,252.314896 188.270218,256.115356 190.582794,260.072876 
	C183.423538,260.705658 176.672043,261.271790 169.920563,261.837921 
	C176.131607,251.525482 182.333054,241.207245 188.562225,230.905777 
	C189.740189,228.957718 191.028381,227.076294 192.580048,225.012390 
z"/>
<path fill="#1B2486" opacity="1.000000" stroke="none" 
	d="
M280.996338,275.974548 
	C284.525635,281.216461 288.054901,286.458344 291.839844,291.945007 
	C289.130219,296.907532 286.164948,301.625275 282.744049,306.687683 
	C281.870239,307.383698 281.452026,307.735016 281.033844,308.086334 
	C281.033844,308.086334 281.107483,308.069885 280.765930,308.001587 
	C278.623962,305.286224 276.823578,302.639191 275.023407,299.662811 
	C275.023621,298.894348 275.023621,298.455231 275.031830,297.763000 
	C275.041199,297.341156 275.042328,297.172333 275.291382,296.725037 
	C276.055481,294.186523 276.494415,291.905426 277.104004,289.670898 
	C278.352966,285.092194 279.693512,280.538513 280.996338,275.974548 
z"/>
<path fill="#862E77" opacity="1.000000" stroke="none" 
	d="
M249.919647,235.003632 
	C244.855743,243.250381 239.791824,251.497131 234.104858,259.717163 
	C232.584045,257.963318 231.667023,256.245850 230.792725,254.506958 
	C229.198868,251.336899 227.630325,248.154099 226.089600,244.644501 
	C227.738007,242.532913 229.348038,240.753464 231.359283,238.967468 
	C237.813553,237.641830 243.866608,236.322723 249.919647,235.003632 
z"/>
<path fill="#BB3233" opacity="1.000000" stroke="none" 
	d="
M206.938049,214.960159 
	C205.121231,215.977142 203.373047,217.157745 201.465332,217.958084 
	C200.001831,218.572083 198.337128,218.706451 196.426880,219.003479 
	C201.988983,209.512985 207.886139,200.073151 214.285812,190.383514 
	C216.189728,190.750549 217.591141,191.367416 218.995621,192.449341 
	C219.020874,196.955978 219.043045,200.997543 219.039001,205.356720 
	C218.988205,206.098572 218.963638,206.522858 218.593048,207.007034 
	C214.477356,209.698013 210.707703,212.329086 206.938049,214.960159 
z"/>
<path fill="#D3424C" opacity="1.000000" stroke="none" 
	d="
M169.889923,261.853394 
	C176.672043,261.271790 183.423538,260.705658 190.595596,260.076721 
	C191.016174,260.013885 191.038315,260.027771 190.979523,260.373413 
	C186.940155,267.140930 182.959595,273.562805 178.635345,279.938782 
	C173.950058,276.601562 169.608475,273.310272 165.169525,269.756042 
	C165.024811,269.312286 164.977478,269.131439 164.930130,268.950623 
	C165.583817,268.150513 166.237503,267.350403 167.332306,266.183838 
	C168.464722,264.523743 169.156036,263.230133 169.847336,261.936493 
	C169.847336,261.936493 169.859299,261.868896 169.889923,261.853394 
z"/>
<path fill="#30298E" opacity="1.000000" stroke="none" 
	d="
M230.008438,353.477203 
	C235.646576,349.687500 239.201859,344.172058 242.916550,338.513214 
	C247.899551,340.402466 252.444946,342.204620 257.003967,344.246735 
	C257.017639,344.486694 257.034454,344.967072 257.017365,345.365601 
	C257.018982,346.560760 257.037689,347.357391 257.056396,348.154022 
	C256.390015,349.345276 255.723587,350.536499 254.595291,352.141968 
	C253.779617,353.059875 253.425842,353.563538 253.072052,354.067200 
	C253.072052,354.067200 253.021378,354.011139 252.612823,353.835205 
	C244.805664,353.598602 237.407059,353.537903 230.008438,353.477203 
z"/>
<path fill="#3C41B7" opacity="1.000000" stroke="none" 
	d="
M313.063293,198.109879 
	C309.009552,190.275925 304.955811,182.441986 300.874023,174.220337 
	C300.932281,173.544968 300.950348,173.253098 301.432312,172.758575 
	C307.313354,172.474289 312.662231,172.388443 317.939331,172.659119 
	C317.240234,176.014450 316.612885,179.013229 315.727631,182.304535 
	C314.972076,187.768829 314.474457,192.940613 313.748474,198.109100 
	C313.520081,198.105804 313.063293,198.109879 313.063293,198.109879 
z"/>
<path fill="#AD2945" opacity="1.000000" stroke="none" 
	d="
M239.886597,148.389771 
	C240.465668,148.083908 240.881134,148.078461 241.782761,148.366058 
	C244.850372,153.769379 247.431839,158.879654 250.004852,163.992828 
	C249.996429,163.995758 249.983871,163.988358 249.600098,164.005249 
	C243.814117,165.691055 238.411942,167.359970 232.711151,168.864883 
	C231.217987,168.090439 230.023407,167.479996 228.828842,166.869553 
	C232.460236,160.809753 236.091614,154.749969 239.886597,148.389771 
z"/>
<path fill="#672B81" opacity="1.000000" stroke="none" 
	d="
M287.206482,166.530853 
	C280.747955,165.276459 274.238708,163.663437 267.089935,162.035812 
	C266.450378,162.021194 265.955566,161.997375 265.955566,161.997375 
	C268.006744,155.861237 270.057892,149.725082 272.148010,143.190002 
	C277.176575,150.584793 282.166168,158.378510 287.206482,166.530853 
z"/>
<path fill="#862E77" opacity="1.000000" stroke="none" 
	d="
M264.194092,211.116714 
	C260.716400,216.994202 257.238708,222.871689 253.090118,228.805695 
	C251.605820,226.569305 250.792435,224.276398 250.047562,221.584229 
	C251.104950,214.115021 252.093842,207.045105 253.289886,199.971634 
	C253.497055,199.968094 253.911209,199.982010 254.217117,200.135864 
	C257.746704,203.898712 260.970398,207.507721 264.194092,211.116714 
z"/>
<path fill="#953578" opacity="1.000000" stroke="none" 
	d="
M249.979034,221.983490 
	C250.792435,224.276398 251.605820,226.569305 252.778595,228.959473 
	C252.162338,230.828247 251.186707,232.599762 250.065369,234.687454 
	C243.866608,236.322723 237.813553,237.641830 231.379807,238.601578 
	C231.996185,235.827789 232.993256,233.413345 234.001404,230.761414 
	C234.012497,230.523911 234.048096,230.049728 234.284485,230.037674 
	C234.520889,230.025620 234.995117,230.009155 235.310760,229.864807 
	C240.410629,227.141479 245.194824,224.562485 249.979034,221.983490 
z"/>
<path fill="#932D64" opacity="1.000000" stroke="none" 
	d="
M224.108215,277.108246 
	C220.472580,283.200623 216.836960,289.292999 212.729446,295.690552 
	C211.843338,295.993530 211.429108,295.991333 210.996185,295.591919 
	C209.651855,289.796082 208.326233,284.397430 207.007385,278.754883 
	C207.014175,278.510956 207.028000,278.023102 207.444519,278.019287 
	C212.238663,277.005341 216.616287,275.995239 221.311859,275.045715 
	C222.455963,275.773590 223.282089,276.440918 224.108215,277.108246 
z"/>
<path fill="#333392" opacity="1.000000" stroke="none" 
	d="
M275.023193,299.992126 
	C276.823578,302.639191 278.623962,305.286224 280.773926,308.038452 
	C279.483765,311.237885 277.844025,314.332153 275.758911,317.763977 
	C274.902893,318.106720 274.492310,318.111969 273.763489,317.941772 
	C269.757446,315.840057 266.069611,313.913727 262.072388,311.825806 
	C264.708618,308.850922 266.857971,306.425446 269.298157,303.841736 
	C271.400391,302.453033 273.211792,301.222565 275.023193,299.992126 
z"/>
<path fill="#953578" opacity="1.000000" stroke="none" 
	d="
M211.014877,295.989136 
	C211.429108,295.991333 211.843338,295.993530 212.568115,296.004333 
	C209.167603,302.256836 205.456573,308.500732 201.127014,314.781647 
	C196.996643,312.862396 193.484802,310.906128 189.978043,308.633850 
	C189.987289,307.895874 189.991455,307.473938 190.353241,306.991333 
	C194.443176,305.141937 198.241867,303.477264 201.887634,301.526703 
	C205.020767,299.850403 207.979202,297.847595 211.014877,295.989136 
z"/>
<path fill="#E8E8E8" opacity="1.000000" stroke="none" 
	d="
M384.874359,175.576904 
	C384.130615,175.880875 383.191864,176.124527 382.516266,175.807434 
	C370.805145,170.310883 358.393311,172.614136 346.424255,172.135757 
	C346.003052,172.709198 345.651611,172.964371 345.652649,173.218094 
	C345.724243,190.485321 345.824127,207.752411 345.919861,225.489624 
	C345.275452,224.976166 344.079010,223.996323 344.072418,223.008530 
	C343.958130,205.875092 343.990051,188.740677 343.990051,171.000351 
	C352.040771,171.000351 359.968079,170.762177 367.872467,171.085663 
	C372.977875,171.294601 378.061523,172.253357 383.121979,173.078186 
	C383.782684,173.185852 384.246704,174.500198 384.874359,175.576904 
z"/>
<path fill="#743C9C" opacity="1.000000" stroke="none" 
	d="
M271.884216,221.822006 
	C274.857239,216.754150 277.830231,211.686295 281.229492,206.296112 
	C281.833893,205.973572 282.011993,205.973328 282.174744,206.346130 
	C286.060547,213.094833 283.532837,218.525558 279.744965,223.844284 
	C278.900238,225.030380 278.477814,226.517242 277.551086,227.899841 
	C276.822815,227.954651 276.404419,227.975266 275.685730,227.828522 
	C274.218353,225.714783 273.051300,223.768402 271.884216,221.822006 
z"/>
<path fill="#932D64" opacity="1.000000" stroke="none" 
	d="
M226.051239,244.976624 
	C227.630325,248.154099 229.198868,251.336899 230.792725,254.506958 
	C231.667023,256.245850 232.584045,257.963318 233.792923,259.869720 
	C233.788696,260.836823 233.473358,261.624603 232.719543,262.743164 
	C231.889725,263.463898 231.498352,263.853882 231.106995,264.243896 
	C231.107010,264.243896 231.248062,264.217621 230.897888,264.141663 
	C227.049225,261.727356 223.550705,259.388947 219.724152,257.025146 
	C218.959045,256.986328 218.521957,256.972931 218.075912,256.736816 
	C218.066940,256.514099 218.075867,256.068390 218.277344,255.938919 
	C218.723251,255.596436 218.915451,255.343704 219.389069,254.967804 
	C221.832214,251.581772 223.941727,248.279205 226.051239,244.976624 
z"/>
<path fill="#743C9C" opacity="1.000000" stroke="none" 
	d="
M251.995499,257.046692 
	C251.569901,257.046509 251.144318,257.046295 250.400146,257.027313 
	C253.438614,251.399033 256.795654,245.789520 260.850464,240.047363 
	C262.337463,239.942352 263.126678,239.969986 263.947083,240.428436 
	C264.336212,245.574692 264.694214,250.290131 265.032532,254.997345 
	C265.012848,254.989120 264.971008,254.981018 264.525574,254.985474 
	C260.051941,255.675507 256.023712,256.361115 251.995499,257.046692 
z"/>
<path fill="#1B2486" opacity="1.000000" stroke="none" 
	d="
M274.081696,318.117188 
	C274.492310,318.111969 274.902893,318.106720 275.621216,318.090515 
	C272.531250,323.596985 269.133575,329.114441 265.107788,334.763641 
	C261.973755,332.615173 259.467865,330.334991 256.959106,327.801941 
	C256.953552,327.380463 256.950806,327.211884 256.964600,326.777649 
	C256.988708,326.335022 256.996307,326.158051 257.367432,325.931000 
	C260.290009,324.855652 262.911713,323.961029 265.391968,322.771484 
	C268.351837,321.351990 271.190521,319.679871 274.081696,318.117188 
z"/>
<path fill="#A33D7E" opacity="1.000000" stroke="none" 
	d="
M220.052200,257.050568 
	C223.550705,259.388947 227.049225,261.727356 230.908508,264.212616 
	C229.078979,268.482849 226.888641,272.606201 224.403259,276.918915 
	C223.282089,276.440918 222.455963,275.773590 221.313599,274.608612 
	C220.682297,268.424133 220.367249,262.737366 220.052200,257.050568 
z"/>
<path fill="#4F3195" opacity="1.000000" stroke="none" 
	d="
M282.190063,205.973083 
	C282.011993,205.973328 281.833893,205.973572 281.388855,205.982300 
	C283.839569,201.352875 286.557251,196.714951 289.592560,191.911270 
	C290.514038,193.920105 290.703583,196.339111 291.811066,198.216644 
	C293.890137,201.741180 296.499908,204.952667 298.564545,208.585846 
	C296.518372,208.315598 294.833557,207.520386 293.067108,207.241013 
	C289.464691,206.671265 285.818329,206.379425 282.190063,205.973083 
z"/>
<path fill="#723390" opacity="1.000000" stroke="none" 
	d="
M263.915924,239.997620 
	C263.126678,239.969986 262.337463,239.942352 261.155487,239.881866 
	C264.259552,233.942551 267.756378,228.036102 271.568726,221.975830 
	C273.051300,223.768402 274.218353,225.714783 275.645111,228.171814 
	C272.257629,232.441452 268.610504,236.200439 264.701477,239.968674 
	C264.265045,239.984482 264.090485,239.991043 263.915924,239.997620 
z"/>
<path fill="#7C3387" opacity="1.000000" stroke="none" 
	d="
M264.481079,210.923492 
	C260.970398,207.507721 257.746704,203.898712 254.230865,199.804214 
	C253.954498,198.875885 253.970276,198.433060 253.986053,197.990234 
	C259.379883,198.706879 264.773743,199.423523 270.535126,200.070038 
	C268.857788,203.576706 266.812897,207.153488 264.481079,210.923492 
z"/>
<path fill="#FBFBFD" opacity="1.000000" stroke="none" 
	d="
M333.385010,225.929611 
	C332.741150,221.051682 332.492371,215.961273 332.208557,209.971359 
	C332.101593,203.388367 332.029663,197.704880 332.128693,191.695892 
	C332.207794,185.239792 332.115936,179.109161 332.079132,172.732544 
	C332.081512,172.326935 332.028778,172.167358 332.171936,172.035217 
	C332.367798,172.062683 332.760529,172.015274 332.760559,172.015274 
	C333.173462,173.192795 333.944916,174.370178 333.945343,175.547867 
	C333.951447,192.270935 333.853119,208.994034 333.385010,225.929611 
z"/>
<path fill="#DCDDDD" opacity="1.000000" stroke="none" 
	d="
M287.565918,322.045715 
	C288.873993,322.621216 289.752594,323.734711 290.634949,323.737701 
	C317.258667,323.828033 343.883087,323.870636 370.506256,323.718781 
	C373.418762,323.702148 376.324341,322.468262 379.639618,321.895142 
	C377.460907,323.001648 374.881897,324.871521 372.289520,324.890350 
	C343.906036,325.096405 315.520477,325.014343 287.135468,324.997375 
	C286.818787,324.997192 286.502228,324.821899 285.575897,324.548157 
	C286.156006,323.626495 286.647095,322.846283 287.565918,322.045715 
z"/>
<path fill="#932D64" opacity="1.000000" stroke="none" 
	d="
M189.972961,308.949890 
	C193.484802,310.906128 196.996643,312.862396 200.833954,314.969727 
	C199.511017,317.889404 197.862610,320.658020 195.647049,323.691803 
	C193.722092,323.893005 192.364273,323.829041 191.019302,323.414856 
	C192.851898,319.959320 192.267258,316.975861 190.873535,313.858215 
	C190.213974,312.382751 190.251328,310.595734 189.972961,308.949890 
z"/>
<path fill="#D3424C" opacity="1.000000" stroke="none" 
	d="
M218.992538,191.984283 
	C217.591141,191.367416 216.189728,190.750549 214.460999,190.080261 
	C217.859802,184.077957 221.585938,178.129089 225.622498,172.362396 
	C225.957062,174.046432 225.981186,175.548309 225.997116,177.439117 
	C225.975250,178.867020 225.961578,179.906006 225.657745,181.125931 
	C223.242584,184.865997 221.117569,188.425140 218.992538,191.984283 
z"/>
<path fill="#DCDDDD" opacity="1.000000" stroke="none" 
	d="
M122.930222,324.383575 
	C132.708221,323.983215 142.501556,323.983215 152.951996,323.983215 
	C152.951996,306.452850 152.951996,289.207062 153.007507,271.497620 
	C153.349106,271.553162 153.883957,272.071716 153.885254,272.591644 
	C153.928787,289.856842 153.921295,307.122192 153.921295,324.977875 
	C147.319992,324.977875 140.904114,325.000397 134.488495,324.969421 
	C130.640640,324.950806 126.793198,324.848602 122.930222,324.383575 
z"/>
<path fill="#3C41B7" opacity="1.000000" stroke="none" 
	d="
M256.961975,328.054810 
	C259.467865,330.334991 261.973755,332.615173 264.832031,334.954224 
	C263.370819,338.264008 261.557159,341.515015 259.096924,344.915283 
	C257.978394,345.032074 257.506409,344.999573 257.034454,344.967072 
	C257.034454,344.967072 257.017639,344.486694 257.009796,343.790222 
	C256.988617,338.080750 256.975311,333.067780 256.961975,328.054810 
z"/>
<path fill="#7C3387" opacity="1.000000" stroke="none" 
	d="
M213.988342,317.303711 
	C214.651901,317.176636 215.154785,317.359955 215.828979,317.754120 
	C215.335815,323.425507 214.671326,328.886047 213.965622,334.774658 
	C211.715317,332.049103 209.506256,328.895508 207.422836,325.921265 
	C209.606125,323.089478 211.716904,320.351776 213.988342,317.303711 
z"/>
<path fill="#FBFBFD" opacity="1.000000" stroke="none" 
	d="
M363.055420,270.663422 
	C355.054382,271.218109 346.801147,271.444824 338.546356,271.556671 
	C332.410645,271.639832 326.272919,271.574097 319.722748,271.372192 
	C319.309387,271.169708 318.950165,270.943756 318.950165,270.943756 
	C319.451660,270.631317 319.953979,270.044769 320.454468,270.046326 
	C334.570618,270.089935 348.686554,270.192902 363.055420,270.663422 
z"/>
<path fill="#FBFBFD" opacity="1.000000" stroke="none" 
	d="
M164.544159,269.157043 
	C164.977478,269.131439 165.024811,269.312286 165.087830,270.217041 
	C165.161942,279.961304 165.220383,288.981628 165.190063,298.444794 
	C165.158417,301.592834 165.215530,304.298035 165.183533,307.462524 
	C165.112122,313.214142 165.129822,318.506500 165.093231,324.057861 
	C165.018112,324.492126 164.997299,324.667328 164.976471,324.842499 
	C164.657852,324.225037 164.061218,323.607666 164.061081,322.990143 
	C164.056870,305.114594 164.112320,287.239014 164.544159,269.157043 
z"/>
<path fill="#DCDDDD" opacity="1.000000" stroke="none" 
	d="
M119.226105,258.393982 
	C114.525200,252.146286 114.859398,241.160172 120.729935,233.867828 
	C116.499344,241.725601 118.357849,250.066040 119.226105,258.393982 
z"/>
<path fill="#FBFBFD" opacity="1.000000" stroke="none" 
	d="
M132.433228,225.995300 
	C133.784134,225.609421 135.591675,224.705139 137.406281,224.690674 
	C151.005096,224.582275 164.605331,224.649521 178.656769,224.823135 
	C178.121811,225.323685 177.135696,225.956238 176.148453,225.958054 
	C161.730103,225.984497 147.311600,225.926682 132.433228,225.995300 
z"/>
<path fill="#E8E8E8" opacity="1.000000" stroke="none" 
	d="
M208.327728,176.156464 
	C208.574707,175.099960 209.183411,174.049820 210.459290,171.848633 
	C199.252411,171.848633 188.975601,171.848633 178.848602,171.364365 
	C188.332565,170.585236 197.665558,170.211716 207.002029,170.073700 
	C208.541672,170.050934 210.448273,170.701111 211.505463,171.735260 
	C212.089783,172.306854 211.434326,174.384613 210.970398,175.648575 
	C210.824677,176.045563 209.483459,176.003754 208.327728,176.156464 
z"/>
<path fill="#B53246" opacity="1.000000" stroke="none" 
	d="
M226.005310,177.050201 
	C225.981186,175.548309 225.957062,174.046432 225.940750,172.215805 
	C226.706238,170.316772 227.463928,168.746475 228.525238,167.022858 
	C230.023407,167.479996 231.217987,168.090439 232.706833,169.112030 
	C233.001114,169.523163 232.993881,170.018173 232.701584,170.183716 
	C230.274628,172.582901 228.139954,174.816544 226.005310,177.050201 
z"/>
<path fill="#E8E8E8" opacity="1.000000" stroke="none" 
	d="
M332.693024,171.584167 
	C332.760529,172.015274 332.367798,172.062683 331.935608,172.082962 
	C331.503418,172.103241 331.058960,172.290359 330.597931,172.212891 
	C326.094971,172.191132 322.053070,172.246857 318.011139,172.302582 
	C312.662231,172.388443 307.313354,172.474289 301.493530,172.546783 
	C301.226257,171.805664 301.440094,170.438705 301.632141,170.441757 
	C311.964417,170.605972 322.294891,170.885452 332.693024,171.584167 
z"/>
<path fill="#E8E8E8" opacity="1.000000" stroke="none" 
	d="
M377.014923,237.536087 
	C378.034302,238.365402 379.666656,239.516495 379.855438,240.869049 
	C380.450195,245.130722 380.503296,249.467972 380.410004,253.831650 
	C379.025055,248.574905 377.996185,243.262482 377.014923,237.536087 
z"/>
<path fill="#DCDDDD" opacity="1.000000" stroke="none" 
	d="
M165.441208,324.918213 
	C164.997299,324.667328 165.018112,324.492126 165.517975,324.096313 
	C167.992386,323.845947 169.987747,323.816132 172.446320,323.866058 
	C178.941849,323.885529 184.974152,323.825287 191.006470,323.765076 
	C192.364273,323.829041 193.722092,323.893005 195.484863,324.005676 
	C194.432098,324.368256 192.976944,324.938995 191.516220,324.953613 
	C182.980194,325.039215 174.442841,324.994629 165.441208,324.918213 
z"/>
<path fill="#FBFBFD" opacity="1.000000" stroke="none" 
	d="
M229.591309,353.512848 
	C237.407059,353.537903 244.805664,353.598602 252.650604,353.836304 
	C250.946854,354.341339 248.799347,354.928467 246.646286,354.949554 
	C239.871201,355.015839 233.094025,354.869476 226.111786,354.413330 
	C226.995331,353.863647 228.084763,353.706055 229.591309,353.512848 
z"/>
<path fill="#E8E8E8" opacity="1.000000" stroke="none" 
	d="
M126.924957,171.514511 
	C122.007523,173.331100 117.419876,174.686371 112.442963,175.969360 
	C115.297104,172.351639 119.806892,171.908371 124.936432,170.907074 
	C125.987701,170.645813 126.218323,170.450470 126.448936,170.255112 
	C126.717537,170.521133 126.986137,170.787170 126.924957,171.514511 
z"/>
<path fill="#7E388D" opacity="1.000000" stroke="none" 
	d="
M240.633179,272.932465 
	C240.211075,274.144745 239.491211,275.508057 238.433502,276.938416 
	C238.842270,275.698120 239.588867,274.390808 240.633179,272.932465 
z"/>
<path fill="#CF403D" opacity="1.000000" stroke="none" 
	d="
M169.548965,262.053528 
	C169.156036,263.230133 168.464722,264.523743 167.455109,265.893646 
	C167.841415,264.703461 168.546005,263.437012 169.548965,262.053528 
z"/>
<path fill="#3B2F9E" opacity="1.000000" stroke="none" 
	d="
M257.017365,345.365601 
	C257.506409,344.999573 257.978394,345.032074 258.802643,345.102966 
	C258.649963,346.044647 258.145020,346.947968 257.348206,348.002625 
	C257.037689,347.357391 257.018982,346.560760 257.017365,345.365601 
z"/>
<path fill="#A0AFDF" opacity="1.000000" stroke="none" 
	d="
M222.339615,349.447449 
	C222.864899,349.934357 223.513992,350.694244 224.065094,351.765839 
	C223.465897,351.291840 222.964661,350.506134 222.339615,349.447449 
z"/>
<path fill="#A0AFDF" opacity="1.000000" stroke="none" 
	d="
M223.922546,352.401184 
	C224.667953,352.479980 225.413681,352.928864 226.054535,353.731628 
	C225.274048,353.647461 224.598450,353.209381 223.922546,352.401184 
z"/>
<path fill="#A0AFDF" opacity="1.000000" stroke="none" 
	d="
M253.394318,354.051208 
	C253.425842,353.563538 253.779617,353.059875 254.424103,352.455139 
	C254.382080,352.914429 254.049332,353.474823 253.394318,354.051208 
z"/>
<path fill="#333392" opacity="1.000000" stroke="none" 
	d="
M281.345581,308.220642 
	C281.452026,307.735016 281.870239,307.383698 282.572510,306.991699 
	C282.456848,307.418976 282.057098,307.886932 281.345581,308.220642 
z"/>
<path fill="#99999A" opacity="1.000000" stroke="none" 
	d="
M318.589905,270.929993 
	C318.950165,270.943756 319.309387,271.169708 319.269318,271.378113 
	C318.737976,271.809631 318.246704,272.032806 317.350830,272.185913 
	C317.374023,271.715942 317.801849,271.316101 318.589905,270.929993 
z"/>
<path fill="#A33D7E" opacity="1.000000" stroke="none" 
	d="
M231.416382,264.380798 
	C231.498352,263.853882 231.889725,263.463898 232.573517,263.039185 
	C232.485886,263.508881 232.105820,264.013306 231.416382,264.380798 
z"/>
<path fill="#FBFBFD" opacity="1.000000" stroke="none" 
	d="
M126.230377,170.129303 
	C126.218323,170.450470 125.987701,170.645813 125.307236,170.897369 
	C125.242195,170.636871 125.627014,170.320190 126.230377,170.129303 
z"/>
<path fill="#FBFBFD" opacity="1.000000" stroke="none" 
	d="
M178.982422,170.644806 
	C178.487122,171.012344 177.848618,171.051071 177.342316,170.512711 
	C177.929413,170.062408 178.384323,170.189194 178.982422,170.644806 
z"/>
<path fill="#DCDDDD" opacity="1.000000" stroke="none" 
	d="
M121.116249,233.985977 
	C120.845123,233.738113 120.974487,233.501389 121.583405,233.360138 
	C121.679825,233.550491 121.497749,233.731018 121.116249,233.985977 
z"/>
<path fill="#99999A" opacity="1.000000" stroke="none" 
	d="
M179.334198,225.009567 
	C179.211411,224.663162 179.387344,224.257187 179.953796,223.912262 
	C180.107178,224.298874 179.870056,224.624420 179.334198,225.009567 
z"/>
<path fill="#2945B9" opacity="1.000000" stroke="none" 
	d="
M317.939331,172.659119 
	C322.053070,172.246857 326.094971,172.191132 330.725433,172.369904 
	C331.517395,172.792206 331.754120,172.916931 332.024048,172.978546 
	C332.115936,179.109161 332.207794,185.239792 331.770874,191.791260 
	C329.826843,197.145050 328.411560,202.077972 326.996277,207.010895 
	C323.248779,205.347031 319.501343,203.683167 315.153931,201.841202 
	C314.044037,201.101761 313.534119,200.540421 313.024200,199.979080 
	C313.027039,199.802109 313.029907,199.625137 313.257141,199.180695 
	C313.481567,198.913208 313.935181,198.900452 314.287598,198.883774 
	C319.897369,195.246445 325.154724,191.625793 331.212006,187.454224 
	C325.532257,185.424179 320.758911,183.718094 315.985565,182.012024 
	C316.612885,179.013229 317.240234,176.014450 317.939331,172.659119 
z"/>
<path fill="#3D298D" opacity="1.000000" stroke="none" 
	d="
M282.174744,206.346130 
	C285.818329,206.379425 289.464691,206.671265 293.067108,207.241013 
	C294.833557,207.520386 296.518372,208.315598 298.615906,208.928741 
	C297.922028,209.841019 296.978394,211.040146 295.757416,211.495163 
	C292.858246,212.575668 289.827667,213.303650 285.637909,214.528488 
	C290.969635,216.546844 295.154999,218.131241 299.436432,220.130463 
	C294.932587,222.342010 290.261047,223.979782 285.764404,226.005737 
	C283.663635,226.952209 281.901154,228.649506 279.663635,229.941925 
	C278.848267,229.206757 278.354614,228.536194 277.860962,227.865616 
	C278.477814,226.517242 278.900238,225.030380 279.744965,223.844284 
	C283.532837,218.525558 286.060547,213.094833 282.174744,206.346130 
z"/>
<path fill="#30298E" opacity="1.000000" stroke="none" 
	d="
M279.985352,230.006516 
	C281.901154,228.649506 283.663635,226.952209 285.764404,226.005737 
	C290.261047,223.979782 294.932587,222.342010 299.765350,220.282928 
	C299.998199,220.020599 300.497437,220.010620 300.750092,220.007050 
	C301.002747,220.003464 301.005920,220.013718 301.004150,220.477509 
	C300.671143,225.630173 300.339844,230.319046 300.004456,235.004181 
	C300.000336,235.000427 300.001953,235.000717 299.739655,234.739258 
	C292.993256,233.313202 286.509155,232.148605 280.015747,230.739624 
	C280.006409,230.495224 279.985352,230.006516 279.985352,230.006516 
z"/>
<path fill="#242F89" opacity="1.000000" stroke="none" 
	d="
M312.728027,200.140915 
	C313.534119,200.540421 314.044037,201.101761 314.785217,201.832062 
	C316.238190,204.778687 317.459900,207.556320 318.536194,210.688934 
	C317.930725,211.352982 317.470734,211.662048 316.637085,211.811829 
	C311.177246,211.082382 306.091034,210.512238 301.004791,209.942078 
	C304.813812,206.728973 308.622833,203.515869 312.728027,200.140915 
z"/>
<path fill="#3C41B7" opacity="1.000000" stroke="none" 
	d="
M300.992126,210.401794 
	C306.091034,210.512238 311.177246,211.082382 316.423706,212.082611 
	C311.391235,215.013031 306.198578,217.513382 301.005920,220.013733 
	C301.005920,220.013718 301.002747,220.003464 300.999725,220.002045 
	C300.990936,216.954239 300.985168,213.907867 300.992126,210.401794 
z"/>
<path fill="#242F89" opacity="1.000000" stroke="none" 
	d="
M313.935181,198.900452 
	C313.935181,198.900452 313.481567,198.913208 313.255066,198.915222 
	C313.028595,198.917236 313.044800,198.512161 313.054047,198.311020 
	C313.063293,198.109879 313.520081,198.105804 313.738220,198.305420 
	C313.956390,198.505051 313.935181,198.900452 313.935181,198.900452 
z"/>
<path fill="#4F3195" opacity="1.000000" stroke="none" 
	d="
M275.043427,297.003540 
	C275.042328,297.172333 275.041199,297.341156 274.612885,297.757263 
	C266.795959,296.341003 259.406189,294.677399 250.838318,292.748566 
	C252.446167,295.598083 253.532715,297.226349 254.321213,298.988037 
	C255.634781,301.922729 256.757355,304.942963 257.568298,307.960144 
	C252.442245,308.988586 247.708237,309.984009 242.978653,310.601257 
	C243.541611,308.700775 244.081375,307.171265 244.662155,305.657501 
	C246.402756,301.120605 248.159393,296.589905 249.909775,292.056763 
	C253.597397,285.622589 257.285004,279.188416 261.237732,272.106689 
	C262.658936,265.966431 263.814972,260.473724 264.971008,254.981018 
	C264.971008,254.981018 265.012848,254.989120 265.272400,254.988663 
	C265.531982,254.988205 266.013397,254.981613 266.168945,255.282257 
	C270.448700,261.699097 274.572845,267.815277 279.448517,275.045959 
	C273.127563,275.045959 267.850616,275.045959 260.950562,275.045959 
	C266.231110,283.273407 270.637268,290.138458 275.043427,297.003540 
z"/>
<path fill="#8651AF" opacity="1.000000" stroke="none" 
	d="
M249.506180,292.036469 
	C248.159393,296.589905 246.402756,301.120605 244.662155,305.657501 
	C244.081375,307.171265 243.541611,308.700775 242.841675,310.790771 
	C242.494019,311.595215 242.258667,311.798248 242.023987,311.920410 
	C242.053772,311.873322 242.004578,311.773346 241.835739,311.460693 
	C240.110489,305.759796 238.554077,300.371582 236.997681,294.983337 
	C236.827164,293.193054 236.656662,291.402740 236.708282,289.379517 
	C240.987793,290.103088 245.045197,291.059631 249.506180,292.036469 
z"/>
<path fill="#692D90" opacity="1.000000" stroke="none" 
	d="
M264.525574,254.985474 
	C263.814972,260.473724 262.658936,265.966431 261.245239,271.731842 
	C258.025604,267.252045 255.063599,262.499542 252.048553,257.396881 
	C256.023712,256.361115 260.051941,255.675507 264.525574,254.985474 
z"/>
<path fill="#4F3195" opacity="1.000000" stroke="none" 
	d="
M247.997849,329.994568 
	C242.248199,331.288269 236.498550,332.581970 230.361572,333.923462 
	C232.567963,328.920654 235.160553,323.869446 237.755966,318.819733 
	C238.800232,316.787964 239.850677,314.759369 241.205322,312.331177 
	C241.676392,311.879791 241.840485,311.826569 242.004578,311.773346 
	C242.004578,311.773346 242.053772,311.873322 242.141769,312.179504 
	C242.484909,312.992767 242.740036,313.499847 243.008514,314.391205 
	C244.680466,319.851166 246.339050,324.926788 247.998810,330.001221 
	C248.000000,330.000000 247.997849,329.994537 247.997849,329.994568 
z"/>
<path fill="#743C9C" opacity="1.000000" stroke="none" 
	d="
M241.835739,311.460693 
	C241.840485,311.826569 241.676392,311.879791 241.257339,311.977173 
	C238.933212,311.678101 236.864075,311.334900 234.392258,310.981384 
	C234.773041,305.784210 235.556488,300.597351 236.668793,295.196899 
	C238.554077,300.371582 240.110489,305.759796 241.835739,311.460693 
z"/>
<path fill="#AD3768" opacity="1.000000" stroke="none" 
	d="
M250.013290,163.989914 
	C247.431839,158.879654 244.850372,153.769379 242.094391,148.361328 
	C243.122513,147.847366 244.725479,147.024170 245.464355,147.511368 
	C251.235580,151.316833 256.856262,155.352600 262.464905,159.398376 
	C262.869904,159.690506 262.813629,160.622086 262.549042,161.623901 
	C258.415009,162.656250 254.703735,163.321030 250.747665,163.987350 
	C250.502869,163.988892 250.013290,163.989914 250.013290,163.989914 
z"/>
<path fill="#953578" opacity="1.000000" stroke="none" 
	d="
M250.992462,163.985809 
	C254.703735,163.321030 258.415009,162.656250 262.556030,161.989502 
	C263.728882,161.990509 264.472015,161.993469 265.585327,161.996918 
	C265.955566,161.997375 266.450378,162.021194 266.697083,162.033463 
	C266.956238,162.476822 266.968658,162.907898 266.988708,163.662476 
	C266.006439,167.169693 264.943970,170.333420 264.058289,173.545883 
	C263.635803,175.078400 263.549286,176.703537 262.815247,178.578903 
	C258.544098,173.909317 254.768280,168.947571 250.992462,163.985809 
z"/>
<path fill="#3D298D" opacity="1.000000" stroke="none" 
	d="
M275.291382,296.725037 
	C270.637268,290.138458 266.231110,283.273407 260.950562,275.045959 
	C267.850616,275.045959 273.127563,275.045959 279.448517,275.045959 
	C274.572845,267.815277 270.448700,261.699097 266.460815,255.028015 
	C273.254395,253.259735 279.911682,252.046356 286.569000,250.832962 
	C286.559570,250.331482 286.550140,249.830002 286.540741,249.328522 
	C283.673645,248.163498 280.711304,247.185486 277.963654,245.785980 
	C274.551971,244.048218 271.317871,241.961823 268.475159,240.021118 
	C275.637268,240.011871 282.331329,240.007523 289.275940,240.008484 
	C289.693451,240.021591 289.860382,240.029404 290.022247,240.480164 
	C290.027496,243.298630 290.037811,245.674118 290.048096,248.049622 
	C290.039917,248.776810 290.031769,249.504013 290.008301,250.854752 
	C289.986115,251.651474 289.979309,251.824631 289.712952,252.225769 
	C286.634766,259.967926 283.816162,267.482117 280.997559,274.996277 
	C280.997559,274.996277 280.995514,275.485718 280.995911,275.730133 
	C279.693512,280.538513 278.352966,285.092194 277.104004,289.670898 
	C276.494415,291.905426 276.055481,294.186523 275.291382,296.725037 
z"/>
<path fill="#28369E" opacity="1.000000" stroke="none" 
	d="
M289.972534,251.997787 
	C289.979309,251.824631 289.986115,251.651474 290.009827,251.218384 
	C298.575348,251.019928 307.123962,251.081406 315.749969,251.516724 
	C311.603424,255.833313 307.363037,259.758667 303.168213,263.732117 
	C302.223846,264.626648 301.438599,265.689178 300.238770,266.481781 
	C296.589142,261.525360 293.280823,256.761566 289.972534,251.997787 
z"/>
<path fill="#3B2F9E" opacity="1.000000" stroke="none" 
	d="
M289.712952,252.225769 
	C293.280823,256.761566 296.589142,261.525360 299.941986,266.639740 
	C293.896393,269.625671 287.806244,272.261047 281.356812,274.946350 
	C283.816162,267.482117 286.634766,259.967926 289.712952,252.225769 
z"/>
<path fill="#28369E" opacity="1.000000" stroke="none" 
	d="
M301.004150,220.477509 
	C306.198578,217.513382 311.391235,215.013031 316.797302,212.241913 
	C317.470734,211.662048 317.930725,211.352982 318.674377,211.004272 
	C318.307922,218.003403 317.657806,225.042175 317.006531,232.512543 
	C316.472443,237.757706 315.939484,242.571259 315.364441,247.764862 
	C310.261230,243.654175 305.501251,239.819962 300.376160,235.738434 
	C300.010986,235.491089 300.008545,235.007935 300.008545,235.007935 
	C300.339844,230.319046 300.671143,225.630173 301.004150,220.477509 
z"/>
<path fill="#3C41B7" opacity="1.000000" stroke="none" 
	d="
M327.071899,207.348557 
	C328.411560,202.077972 329.826843,197.145050 331.599915,192.116760 
	C332.029663,197.704880 332.101593,203.388367 332.056335,209.524658 
	C330.341949,209.213715 328.744751,208.449966 327.071899,207.348557 
z"/>
<path fill="#932D64" opacity="1.000000" stroke="none" 
	d="
M250.747665,163.987350 
	C254.768280,168.947571 258.544098,173.909317 262.648438,178.946732 
	C260.141937,184.874359 257.306885,190.726334 253.867172,196.740509 
	C250.506927,192.933334 247.751328,188.963928 245.010803,184.602386 
	C246.678558,177.469620 248.331223,170.728989 249.983887,163.988358 
	C249.983871,163.988358 249.996429,163.995758 250.004852,163.992828 
	C250.013290,163.989914 250.502869,163.988892 250.747665,163.987350 
z"/>
<path fill="#9F295B" opacity="1.000000" stroke="none" 
	d="
M244.995728,184.994507 
	C247.751328,188.963928 250.506927,192.933334 253.599548,196.956085 
	C253.936584,197.009445 253.965622,197.499756 253.975830,197.744995 
	C253.970276,198.433060 253.954498,198.875885 253.924957,199.650360 
	C253.911209,199.982010 253.497055,199.968094 253.086121,199.947662 
	C252.675201,199.927231 252.267090,199.907852 251.934753,199.659912 
	C245.078522,200.299393 238.554626,201.186798 232.070465,201.723907 
	C233.411102,198.916550 234.712006,196.459488 236.303925,193.843781 
	C239.060715,190.790710 241.526443,187.896271 244.243073,185.000580 
	C244.661240,184.997696 244.828491,184.996094 244.995728,184.994507 
z"/>
<path fill="#B33256" opacity="1.000000" stroke="none" 
	d="
M234.048096,230.049728 
	C234.048096,230.049728 234.012497,230.523911 233.542175,230.761566 
	C226.053879,231.334824 219.035934,231.670425 212.017975,232.006012 
	C212.011139,231.836838 212.004303,231.667648 212.144623,230.908264 
	C214.507538,222.527740 216.723312,214.737442 218.939087,206.947128 
	C218.963638,206.522858 218.988205,206.098572 219.442062,205.342316 
	C223.886658,204.333054 227.901947,203.655792 232.094269,203.294495 
	C233.861115,207.722214 235.450928,211.834000 236.826233,216.166656 
	C232.001083,213.759949 227.390442,211.132355 222.779816,208.504761 
	C222.358322,208.748947 221.936829,208.993134 221.515335,209.237320 
	C225.692917,216.174789 229.870514,223.112259 234.048096,230.049728 
z"/>
<path fill="#A92F56" opacity="1.000000" stroke="none" 
	d="
M212.005798,232.329636 
	C219.035934,231.670425 226.053879,231.334824 233.531082,230.999054 
	C232.993256,233.413345 231.996185,235.827789 230.978592,238.608124 
	C229.348038,240.753464 227.738007,242.532913 226.089600,244.644501 
	C223.941727,248.279205 221.832214,251.581772 219.319290,254.590652 
	C216.598785,247.514114 214.281723,240.731277 211.964645,233.948441 
	C211.974304,233.516708 211.983963,233.084991 212.005798,232.329636 
z"/>
<path fill="#AD2945" opacity="1.000000" stroke="none" 
	d="
M211.676834,233.993652 
	C214.281723,240.731277 216.598785,247.514114 218.985641,254.674103 
	C218.915451,255.343704 218.723251,255.596436 217.863922,255.915451 
	C211.832642,254.683701 206.416275,253.345932 201.048218,251.650482 
	C204.059372,245.859100 207.022217,240.425415 209.985046,234.991730 
	C210.453049,234.674103 210.921036,234.356491 211.676834,233.993652 
z"/>
<path fill="#B53246" opacity="1.000000" stroke="none" 
	d="
M209.622284,235.004028 
	C207.022217,240.425415 204.059372,245.859100 200.783142,251.964142 
	C200.315063,256.758179 200.160370,260.880859 199.643097,264.994141 
	C196.855194,263.328888 194.429871,261.673035 192.007965,259.601471 
	C192.676910,254.790451 193.342422,250.395157 194.007935,245.999878 
	C194.007935,245.999878 194.013138,245.508057 194.015900,245.262329 
	C197.715775,242.472122 201.393768,239.899094 205.120361,237.398468 
	C206.439102,236.513565 207.876358,235.805267 209.622284,235.004028 
z"/>
<path fill="#D3424C" opacity="1.000000" stroke="none" 
	d="
M218.593048,207.007034 
	C216.723312,214.737442 214.507538,222.527740 212.132172,230.654572 
	C210.342865,225.900558 208.713181,220.809998 207.010773,215.339798 
	C210.707703,212.329086 214.477356,209.698013 218.593048,207.007034 
z"/>
<path fill="#3B2F9E" opacity="1.000000" stroke="none" 
	d="
M256.959106,327.801941 
	C256.975311,333.067780 256.988617,338.080750 256.996155,343.550232 
	C252.444946,342.204620 247.899551,340.402466 243.174149,338.297791 
	C244.556946,335.525818 246.119781,333.056335 247.840225,330.290680 
	C247.997849,329.994537 248.000000,330.000000 248.313110,329.854065 
	C250.772125,328.779327 252.918045,327.850525 255.378632,326.936462 
	C256.111572,326.981903 256.529846,327.012604 256.948090,327.043304 
	C256.950806,327.211884 256.953552,327.380463 256.959106,327.801941 
z"/>
<path fill="#30298E" opacity="1.000000" stroke="none" 
	d="
M300.004456,235.004181 
	C300.008545,235.007935 300.010986,235.491089 300.012085,235.732361 
	C296.916199,239.954117 293.819183,243.934586 290.385132,247.982346 
	C290.037811,245.674118 290.027496,243.298630 290.372803,240.421570 
	C293.819580,238.280258 296.910767,236.640488 300.001953,235.000702 
	C300.001953,235.000717 300.000336,235.000427 300.004456,235.004181 
z"/>
<path fill="#BB3233" opacity="1.000000" stroke="none" 
	d="
M193.648148,245.949554 
	C193.342422,250.395157 192.676910,254.790451 191.766342,259.601685 
	C191.521286,260.017609 191.038315,260.027771 191.038315,260.027771 
	C191.038315,260.027771 191.016174,260.013885 191.003387,260.010071 
	C188.270218,256.115356 185.402969,252.314896 182.918289,248.278900 
	C182.164764,247.054932 181.780807,244.627701 182.479874,243.756622 
	C183.194809,242.865814 185.562759,242.752197 186.998734,243.117493 
	C189.189392,243.674805 191.200836,244.936584 193.648148,245.949554 
z"/>
<path fill="#3D298D" opacity="1.000000" stroke="none" 
	d="
M257.960327,307.927155 
	C256.757355,304.942963 255.634781,301.922729 254.321213,298.988037 
	C253.532715,297.226349 252.446167,295.598083 250.838318,292.748566 
	C259.406189,294.677399 266.795959,296.341003 274.604675,298.010345 
	C275.023621,298.455231 275.023621,298.894348 275.023407,299.662811 
	C273.211792,301.222565 271.400391,302.453033 268.926147,303.851227 
	C265.507660,305.346375 262.751984,306.673798 259.656982,307.996338 
	C258.865204,307.970001 258.412781,307.948578 257.960327,307.927155 
z"/>
<path fill="#B53246" opacity="1.000000" stroke="none" 
	d="
M231.917252,202.978531 
	C227.901947,203.655792 223.886658,204.333054 219.468292,205.024719 
	C219.043045,200.997543 219.020874,196.955978 218.995621,192.449341 
	C221.117569,188.425140 223.242584,184.865997 225.958710,181.294220 
	C229.704163,185.521881 232.858521,189.762146 236.012878,194.002441 
	C234.712006,196.459488 233.411102,198.916550 232.046936,201.950302 
	C231.983688,202.526993 231.917252,202.978531 231.917252,202.978531 
z"/>
<path fill="#B6304E" opacity="1.000000" stroke="none" 
	d="
M190.979523,260.373413 
	C191.038315,260.027771 191.521286,260.017609 191.762909,260.017395 
	C194.429871,261.673035 196.855194,263.328888 199.765976,265.199371 
	C200.452332,265.670929 200.701508,265.866272 200.995300,266.333984 
	C200.988129,267.113281 200.984634,267.558563 200.715912,268.239380 
	C198.638641,274.656128 196.826630,280.837311 194.892944,287.223846 
	C194.570938,287.685333 194.322388,287.880005 193.665131,287.959351 
	C188.530899,285.931335 183.757187,283.957123 178.983292,281.649963 
	C178.981750,280.872925 178.980392,280.428802 178.979034,279.984680 
	C182.959595,273.562805 186.940155,267.140930 190.979523,260.373413 
z"/>
<path fill="#C33941" opacity="1.000000" stroke="none" 
	d="
M178.635330,279.938782 
	C178.980392,280.428802 178.981750,280.872925 178.983307,281.983368 
	C178.983246,283.093475 178.983017,283.537262 178.628021,284.081787 
	C177.183411,288.091217 176.242813,292.050659 174.938675,295.886536 
	C174.317017,297.715057 173.004120,299.308594 171.788055,300.749695 
	C169.474106,299.661194 167.376465,298.831573 165.278809,298.001923 
	C165.220383,288.981628 165.161942,279.961304 165.185211,270.479980 
	C169.608475,273.310272 173.950058,276.601562 178.635330,279.938782 
z"/>
<path fill="#28369E" opacity="1.000000" stroke="none" 
	d="
M314.287598,198.883774 
	C313.935181,198.900452 313.956390,198.505051 313.966614,198.308716 
	C314.474457,192.940613 314.972076,187.768829 315.727631,182.304535 
	C320.758911,183.718094 325.532257,185.424179 331.212006,187.454224 
	C325.154724,191.625793 319.897369,195.246445 314.287598,198.883774 
z"/>
<path fill="#A92F56" opacity="1.000000" stroke="none" 
	d="
M245.010803,184.602386 
	C244.828491,184.996094 244.661240,184.997696 243.947296,184.838745 
	C239.931717,179.791519 236.462799,174.904846 232.993881,170.018173 
	C232.993881,170.018173 233.001114,169.523163 233.005432,169.276031 
	C238.411942,167.359970 243.814117,165.691055 249.600098,164.005249 
	C248.331223,170.728989 246.678558,177.469620 245.010803,184.602386 
z"/>
<path fill="#A33D7E" opacity="1.000000" stroke="none" 
	d="
M252.267090,199.907852 
	C252.267090,199.907852 252.675201,199.927231 252.878967,199.951202 
	C252.093842,207.045105 251.104950,214.115021 250.047546,221.584229 
	C245.194824,224.562485 240.410629,227.141479 235.322723,229.483505 
	C236.347168,225.518906 237.675293,221.791275 239.286850,217.876709 
	C243.802551,211.762482 248.034821,205.835159 252.267090,199.907852 
z"/>
<path fill="#AD3768" opacity="1.000000" stroke="none" 
	d="
M239.003418,218.063629 
	C237.675293,221.791275 236.347168,225.518906 235.007080,229.627838 
	C234.995117,230.009155 234.520889,230.025620 234.284485,230.037674 
	C229.870514,223.112259 225.692917,216.174789 221.515335,209.237320 
	C221.936829,208.993134 222.358322,208.748947 222.779816,208.504761 
	C227.390442,211.132355 232.001083,213.759949 237.054245,216.346664 
	C237.998993,216.891739 238.501190,217.477692 239.003418,218.063629 
z"/>
<path fill="#9F295B" opacity="1.000000" stroke="none" 
	d="
M194.025665,288.013184 
	C194.322388,287.880005 194.570938,287.685333 195.236694,287.168152 
	C199.468262,284.270996 203.234436,281.634888 207.000610,278.998779 
	C208.326233,284.397430 209.651855,289.796082 210.996185,295.591949 
	C207.979202,297.847595 205.020767,299.850403 201.887634,301.526703 
	C198.241867,303.477264 194.443176,305.141937 190.026123,306.935730 
	C187.904572,305.956573 186.467743,304.972382 185.025726,303.742401 
	C185.020554,303.496613 185.014465,303.005005 185.305420,302.836029 
	C188.406143,297.782410 191.215897,292.897797 194.025665,288.013184 
z"/>
<path fill="#AD3768" opacity="1.000000" stroke="none" 
	d="
M200.981140,268.003876 
	C200.984634,267.558563 200.988129,267.113281 201.313721,266.187622 
	C207.118866,262.791351 212.601883,259.875458 218.084885,256.959564 
	C218.521957,256.972931 218.959045,256.986328 219.724152,257.025146 
	C220.367249,262.737366 220.682297,268.424133 220.995621,274.548035 
	C216.616287,275.995239 212.238663,277.005341 207.275970,277.718140 
	C204.787643,274.281860 202.884399,271.142853 200.981140,268.003876 
z"/>
<path fill="#B33256" opacity="1.000000" stroke="none" 
	d="
M200.715912,268.239380 
	C202.884399,271.142853 204.787643,274.281860 206.859451,277.721985 
	C207.028000,278.023102 207.014175,278.510956 207.007385,278.754883 
	C203.234436,281.634888 199.468262,284.270996 195.358337,286.962830 
	C196.826630,280.837311 198.638641,274.656128 200.715912,268.239380 
z"/>
<path fill="#30298E" opacity="1.000000" stroke="none" 
	d="
M259.996338,308.001221 
	C262.751984,306.673798 265.507660,305.346375 268.635315,304.009460 
	C266.857971,306.425446 264.708618,308.850922 262.072388,311.825806 
	C266.069611,313.913727 269.757446,315.840057 273.763489,317.941772 
	C271.190521,319.679871 268.351837,321.351990 265.391968,322.771484 
	C262.911713,323.961029 260.290009,324.855652 257.379364,325.544342 
	C257.511353,323.496887 257.908844,321.755859 258.495758,320.081146 
	C259.872131,316.153839 262.145691,312.359650 259.996338,308.001221 
z"/>
<path fill="#AD3768" opacity="1.000000" stroke="none" 
	d="
M185.030899,303.988190 
	C186.467743,304.972382 187.904572,305.956573 189.668518,306.996399 
	C189.991455,307.473938 189.987289,307.895874 189.978027,308.633850 
	C190.251328,310.595734 190.213974,312.382751 190.873535,313.858215 
	C192.267258,316.975861 192.851898,319.959320 191.019302,323.414825 
	C184.974152,323.825287 178.941849,323.885529 172.453339,323.479279 
	C172.683655,314.165100 177.833603,308.375336 185.030899,303.988190 
z"/>
<path fill="#4F3195" opacity="1.000000" stroke="none" 
	d="
M289.025360,240.003174 
	C282.331329,240.007523 275.637268,240.011871 268.094849,240.013641 
	C266.485443,239.993835 265.724426,239.976639 264.963379,239.959442 
	C268.610504,236.200439 272.257629,232.441452 275.945404,228.339172 
	C276.404419,227.975266 276.822815,227.954651 277.551086,227.899841 
	C278.354614,228.536194 278.848267,229.206757 279.663635,229.941925 
	C279.985352,230.006516 280.006409,230.495224 279.858978,230.956406 
	C282.816162,234.279449 285.920746,237.141312 289.025360,240.003174 
z"/>
<path fill="#B33256" opacity="1.000000" stroke="none" 
	d="
M218.075912,256.736816 
	C212.601883,259.875458 207.118866,262.791351 201.317413,265.853638 
	C200.701508,265.866272 200.452332,265.670929 200.128555,265.208801 
	C200.160370,260.880859 200.315063,256.758179 200.734833,252.321838 
	C206.416275,253.345932 211.832642,254.683701 217.662445,256.044922 
	C218.075867,256.068390 218.066940,256.514099 218.075912,256.736816 
z"/>
<path fill="#442289" opacity="1.000000" stroke="none" 
	d="
M264.701477,239.968689 
	C265.724426,239.976639 266.485443,239.993835 267.626770,240.018524 
	C271.317871,241.961823 274.551971,244.048218 277.963654,245.785980 
	C280.711304,247.185486 283.673645,248.163498 286.540741,249.328522 
	C286.550140,249.830002 286.559570,250.331482 286.569000,250.832962 
	C279.911682,252.046356 273.254395,253.259735 266.305237,254.727371 
	C266.013397,254.981613 265.531982,254.988205 265.292114,254.996887 
	C264.694214,250.290131 264.336212,245.574692 263.947083,240.428436 
	C264.090485,239.991043 264.265045,239.984482 264.701477,239.968689 
z"/>
<path fill="#31197A" opacity="1.000000" stroke="none" 
	d="
M259.656982,307.996338 
	C262.145691,312.359650 259.872131,316.153839 258.495758,320.081146 
	C257.908844,321.755859 257.511353,323.496887 257.015808,325.594452 
	C256.996307,326.158051 256.988708,326.335022 256.964600,326.777649 
	C256.529846,327.012604 256.111572,326.981903 255.308975,326.605682 
	C250.948151,322.175751 246.971664,318.091309 242.995163,314.006897 
	C242.740036,313.499847 242.484909,312.992767 242.111969,312.226624 
	C242.258667,311.798248 242.494019,311.595215 242.837250,311.168945 
	C247.708237,309.984009 252.442245,308.988586 257.568298,307.960144 
	C258.412781,307.948578 258.865204,307.970001 259.656982,307.996338 
z"/>
<path fill="#3C41B7" opacity="1.000000" stroke="none" 
	d="
M332.079163,172.732544 
	C331.754120,172.916931 331.517395,172.792206 331.186462,172.447357 
	C331.058960,172.290359 331.503418,172.103241 331.739746,172.055511 
	C332.028778,172.167358 332.081512,172.326935 332.079163,172.732544 
z"/>
<path fill="#B33256" opacity="1.000000" stroke="none" 
	d="
M232.701584,170.183716 
	C236.462799,174.904846 239.931717,179.791519 243.696411,184.840027 
	C241.526443,187.896271 239.060715,190.790710 236.303925,193.843781 
	C232.858521,189.762146 229.704163,185.521881 226.248856,181.113312 
	C225.961578,179.906006 225.975250,178.867020 225.997101,177.439117 
	C228.139954,174.816544 230.274628,172.582901 232.701584,170.183716 
z"/>
<path fill="#B6304E" opacity="1.000000" stroke="none" 
	d="
M185.025726,303.742401 
	C177.833603,308.375336 172.683655,314.165100 171.990143,323.399567 
	C169.987747,323.816132 167.992386,323.845947 165.572266,323.837280 
	C165.129822,318.506500 165.112122,313.214142 165.529602,307.448334 
	C167.977951,304.986084 169.991135,302.997314 172.004333,301.008545 
	C173.004120,299.308594 174.317017,297.715057 174.938675,295.886536 
	C176.242813,292.050659 177.183411,288.091217 178.782410,284.419067 
	C181.199188,290.772095 183.106827,296.888550 185.014465,303.005005 
	C185.014465,303.005005 185.020554,303.496613 185.025726,303.742401 
z"/>
<path fill="#B53246" opacity="1.000000" stroke="none" 
	d="
M171.788040,300.749695 
	C169.991135,302.997314 167.977951,304.986084 165.618698,306.989014 
	C165.215530,304.298035 165.158417,301.592834 165.190063,298.444794 
	C167.376465,298.831573 169.474106,299.661194 171.788040,300.749695 
z"/>
<path fill="#3B2F9E" opacity="1.000000" stroke="none" 
	d="
M289.275940,240.008484 
	C285.920746,237.141312 282.816162,234.279449 279.868286,231.200806 
	C286.509155,232.148605 292.993256,233.313202 299.739655,234.739258 
	C296.910767,236.640488 293.819580,238.280258 290.377838,239.978607 
	C289.860382,240.029404 289.693451,240.021591 289.275940,240.008484 
z"/>
<path fill="#3D298D" opacity="1.000000" stroke="none" 
	d="
M243.008514,314.391205 
	C246.971664,318.091309 250.948151,322.175751 254.994293,326.590942 
	C252.918045,327.850525 250.772125,328.779327 248.311920,329.855286 
	C246.339050,324.926788 244.680466,319.851166 243.008514,314.391205 
z"/>
<path fill="#D25886" opacity="1.000000" stroke="none" 
	d="
M239.286835,217.876709 
	C238.501190,217.477692 237.998993,216.891739 237.268768,216.125793 
	C235.450928,211.834000 233.861115,207.722214 232.094269,203.294495 
	C231.917252,202.978531 231.983688,202.526993 232.007217,202.300598 
	C238.554626,201.186798 245.078522,200.299393 251.934753,199.659912 
	C248.034821,205.835159 243.802551,211.762482 239.286835,217.876709 
z"/>
<path fill="#AD2945" opacity="1.000000" stroke="none" 
	d="
M185.305420,302.836029 
	C183.106827,296.888550 181.199188,290.772095 179.137161,284.318359 
	C178.983017,283.537262 178.983246,283.093475 178.983490,282.316284 
	C183.757187,283.957123 188.530899,285.931335 193.665131,287.959351 
	C191.215897,292.897797 188.406143,297.782410 185.305420,302.836029 
z"/>
</svg>